<svg width="48" height="40" viewBox="0 0 48 40" fill="none" xmlns="http://www.w3.org/2000/svg">
<g clip-path="url(#clip0_969_831)">
<path d="M22.2973 26.25H28.2433V33.75L37.1622 26.25H43.1081C43.8966 26.25 44.6528 25.9866 45.2103 25.5178C45.7679 25.0489 46.0811 24.413 46.0811 23.75V3.75C46.0811 3.08696 45.7679 2.45107 45.2103 1.98223C44.6528 1.51339 43.8966 1.25 43.1081 1.25H19.3244C18.5359 1.25 17.7797 1.51339 17.2221 1.98223C16.6646 2.45107 16.3514 3.08696 16.3514 3.75" stroke="black" stroke-width="1.5" stroke-linecap="round" stroke-linejoin="round"/>
<path d="M8.91891 16.25C12.2028 16.25 14.8649 14.0114 14.8649 11.25C14.8649 8.48858 12.2028 6.25 8.91891 6.25C5.63505 6.25 2.97296 8.48858 2.97296 11.25C2.97296 14.0114 5.63505 16.25 8.91891 16.25Z" stroke="black" stroke-width="1.5" stroke-linecap="round" stroke-linejoin="round"/>
<path d="M16.3514 28.75V25C16.3514 23.3424 15.5683 21.7527 14.1745 20.5806C12.7806 19.4085 10.8901 18.75 8.91894 18.75C6.94774 18.75 5.05727 19.4085 3.66342 20.5806C2.26957 21.7527 1.48651 23.3424 1.48651 25V28.75H4.45948L5.94597 38.75H11.8919L13.3784 28.75H16.3514Z" stroke="black" stroke-width="1.5" stroke-linecap="round" stroke-linejoin="round"/>
<path d="M26.7568 11.875C26.7568 11.2569 26.9747 10.6527 27.3831 10.1388C27.7914 9.62494 28.3718 9.2244 29.0509 8.98788C29.7299 8.75135 30.4771 8.68947 31.198 8.81005C31.9189 8.93063 32.581 9.22825 33.1007 9.66529C33.6205 10.1023 33.9744 10.6592 34.1178 11.2653C34.2612 11.8715 34.1876 12.4999 33.9063 13.0709C33.6251 13.6419 33.1487 14.13 32.5376 14.4733C31.9265 14.8167 31.208 15 30.473 15" stroke="black" stroke-width="1.5" stroke-linecap="round" stroke-linejoin="round"/>
<path d="M30.473 18.75C30.326 18.75 30.1823 18.7867 30.0601 18.8553C29.9378 18.924 29.8426 19.0216 29.7863 19.1358C29.7301 19.25 29.7153 19.3757 29.744 19.4969C29.7727 19.6182 29.8435 19.7295 29.9474 19.8169C30.0514 19.9044 30.1838 19.9639 30.328 19.988C30.4722 20.0121 30.6216 19.9997 30.7574 19.9524C30.8932 19.9051 31.0093 19.825 31.091 19.7222C31.1726 19.6195 31.2162 19.4986 31.2162 19.375C31.2162 19.2092 31.1379 19.0503 30.9985 18.9331C30.8591 18.8158 30.6701 18.75 30.473 18.75Z" stroke="black" stroke-width="1.5" stroke-linecap="round" stroke-linejoin="round"/>
</g>
<defs>
<clipPath id="clip0_969_831">
<rect width="47.5676" height="40" fill="white"/>
</clipPath>
</defs>
</svg>
